<!-- Generator: Adobe Illustrator 24.0.0, SVG Export Plug-In . SVG Version: 6.00 Build 0)  -->
<svg version="1.1" id="Capa_1" xmlns="http://www.w3.org/2000/svg" xmlns:xlink="http://www.w3.org/1999/xlink" x="0px" y="0px"
	 viewBox="0 0 595.28 841.89" style="enable-background:new 0 0 595.28 841.89;" xml:space="preserve">
<!-- <style type="text/css">
	.st0{fill:#000;}
</style> -->
<path class="st0" d="M439.2,382.95c0-4.35-0.34-8.72,0.07-13.03c0.86-9.09,1.64-18.23,3.37-27.18c1.48-7.65,7.98-11.62,14.61-13.87
	c9.1-3.08,15.58,2.27,17.11,12.62c1.32,8.9,3.03,17.74,4.34,26.64c0.8,5.39,1.23,10.85,1.73,16.28c0.55,5.92,0.92,11.86,1.5,17.77
	c0.3,3.06,5.33,7.42,8.4,7.29c6.22-0.25,12.42-0.75,18.64-0.93c3.94-0.11,7.91,0.04,11.85,0.34c7.59,0.58,15.2,1.09,22.73,2.12
	c8.04,1.1,15.65,3.26,18.52,12.36c0.41,1.31,1.4,2.43,1.94,3.72c2.59,6.26,0.75,12.38-5.52,14.88c-5.32,2.12-11.17,3.03-16.85,4.09
	c-5.87,1.1-11.81,1.76-17.73,2.57c-4.9,0.67-9.8,1.38-14.72,1.87c-6.45,0.64-12.91,1.08-19.37,1.62c-2.38,0.2-6.44,5.65-6.33,8.93
	c0.16,4.84,0.97,9.68,0.86,14.51c-0.28,11.98-0.73,23.96-1.5,35.92c-0.71,11.04-11.25,22.12-21.62,24.65
	c-5.56,1.36-15.67-2.91-16.07-10.51c-0.26-4.93-1-9.83-1.33-14.76c-0.64-9.51-1.13-19.04-1.7-28.55
	c-0.42-6.97-0.93-13.93-1.32-20.91c-0.21-3.82-3.9-7.76-7.69-7.65c-13.39,0.4-26.78,1.11-40.17,1.33
	c-11.24,0.18-21.52-3.09-29.35-11.45c-5.51-5.88-8.57-13.04-5.46-21.29c1.47-3.9,4.4-6.64,8.84-6.93
	c20.47-1.35,40.94-2.69,61.42-3.89c6.75-0.4,10.83-4.5,10.78-11.31c-0.04-5.75-0.01-11.5-0.01-17.26
	C439.18,382.95,439.19,382.95,439.2,382.95z"/>
<path class="st0" d="M323.88,250.85c0,0,32.64,12.89,38.68,71.07s-18.59,86.12-11.53,121.94s25.13,89.13,12.16,130.75
	c-12.97,41.63-47.83,73.06-114.97,76.03S71.93,630.61,36.57,518.52s86.23-169.48,86.23-169.48s43.38-25.16,57.16-45.81
	c13.78-20.65,82.62-98.5,117.32-71.21c0,0,12.48-31.44,30.64-51.25s35.1-37.02,44.72-39.73c9.61-2.71,24.89,8.22,16.17,21.92
	C380.1,176.67,343.65,187.51,323.88,250.85z" />
</svg>
